<?xml version="1.0" standalone="no"?>
<!DOCTYPE svg PUBLIC "-//W3C//DTD SVG 20010904//EN"
 "http://www.w3.org/TR/2001/REC-SVG-20010904/DTD/svg10.dtd">
<svg version="1.0" xmlns="http://www.w3.org/2000/svg"
 width="250.000000pt" height="148.000000pt" viewBox="0 0 250.000000 148.000000"
 preserveAspectRatio="xMidYMid meet">

<g transform="translate(0.000000,148.000000) scale(0.100000,-0.100000)"
fill="#000000" stroke="none">
<path d="M511 1397 c-29 -14 -43 -52 -112 -302 -68 -245 -128 -433 -145 -449
-7 -8 -33 -17 -56 -21 -113 -18 -165 -68 -115 -111 l26 -22 85 18 c135 30 139
33 190 163 l15 37 115 0 115 0 10 -37 c5 -21 27 -109 48 -197 48 -201 45 -199
177 -162 325 93 730 107 1116 40 222 -39 326 -24 393 56 39 46 57 121 64 260
6 151 -6 203 -49 208 -18 2 -30 -3 -36 -15 -5 -10 -12 -83 -14 -163 -3 -124
-7 -152 -26 -191 -13 -26 -33 -51 -48 -57 -37 -17 -143 -14 -284 8 -333 53
-779 46 -1075 -15 -38 -8 -75 -15 -81 -15 -20 0 -76 269 -134 645 -24 153 -48
280 -56 293 -25 39 -79 52 -123 29z m73 -382 c14 -88 26 -168 26 -178 0 -15
-11 -17 -89 -17 l-89 0 20 68 c57 196 92 302 99 295 4 -5 19 -80 33 -168z"/>
<path d="M872 1138 c-16 -16 -17 -500 -2 -529 10 -17 23 -19 158 -19 155 0
172 4 172 45 0 39 -19 45 -132 45 l-108 0 0 223 c0 160 -3 226 -12 235 -15 15
-61 15 -76 0z"/>
<path d="M1367 1143 c-4 -3 -7 -13 -7 -22 0 -25 180 -494 197 -513 9 -10 28
-18 43 -18 15 0 34 8 42 18 22 24 200 498 196 519 -4 21 -62 31 -82 14 -7 -6
-44 -94 -82 -196 -38 -102 -71 -185 -74 -185 -3 0 -34 78 -69 173 -79 212 -82
217 -125 217 -18 0 -36 -3 -39 -7z"/>
<path d="M1880 1131 c-6 -12 -10 -115 -10 -265 0 -209 2 -247 16 -260 13 -13
44 -16 180 -16 163 0 164 0 175 24 8 17 8 29 0 45 -11 20 -19 21 -141 21
l-130 0 0 80 0 80 119 0 c126 0 131 2 131 50 0 31 -33 40 -144 40 l-106 0 0
65 0 65 125 0 c122 0 126 1 136 24 8 17 8 29 0 45 -11 20 -19 21 -176 21 -152
0 -165 -1 -175 -19z"/>
<path d="M1231 1113 c-24 -30 -20 -58 12 -86 39 -34 97 -2 97 53 0 59 -72 81
-109 33z"/>
<path d="M1246 964 c-13 -13 -16 -43 -16 -175 0 -92 4 -169 10 -180 12 -22 59
-26 78 -7 8 8 12 64 12 185 0 160 -1 173 -19 183 -27 14 -47 13 -65 -6z"/>
<path d="M1109 305 c-29 -16 -59 -70 -59 -107 0 -34 35 -85 72 -104 38 -20 95
-22 127 -5 53 29 80 130 46 177 -33 48 -131 69 -186 39z"/>
<path d="M1779 297 c-38 -25 -60 -77 -52 -121 8 -39 65 -94 108 -102 81 -15
146 43 147 131 1 51 -11 69 -63 96 -51 25 -98 24 -140 -4z"/>
</g>
</svg>
